<svg id="Layer_1" enable-background="new 0 0 512 512" height="512" viewBox="0 0 512 512" width="512" xmlns="http://www.w3.org/2000/svg" xmlns:xlink="http://www.w3.org/1999/xlink"><linearGradient id="SVGID_1_" gradientTransform="matrix(1 0 0 -1 0 512.5)" gradientUnits="userSpaceOnUse" x1="256.05" x2="256.05" y1="512.45" y2=".45"><stop offset="0" stop-color="#f704fe"/><stop offset="1" stop-color="#24bce3"/></linearGradient><g clip-rule="evenodd" fill-rule="evenodd"><circle cx="256" cy="256" fill="url(#SVGID_1_)" r="256"/><g fill="#fffffe"><ellipse cx="227.4" cy="141.4" rx="11.1" ry="11"/><ellipse cx="284.6" cy="141.4" rx="11.1" ry="11"/><path d="m213.6 370.6-9.2-5.3c-2.6-1.5-5.5-2.3-8.3-2.3-5.9 0-11.5 3.3-14.4 8.3-4.6 7.9-1.8 18.1 6.1 22.7l9.3 5.3c.4.2.9.1 1.1-.3l15.8-27.4c.1-.1-.1-.7-.4-1z"/><path d="m183.1 360.5-17.1-9.9c-1-.6-1.6-1.6-1.6-2.9v-52h-20.7v59.8c0 4 2.4 7.7 6.1 9.4 6.4 2.8 16.6 9.6 23.1 13.3.3-7.2 4.2-13.7 10.2-17.7z"/><path d="m176.8 257.5h-31.3c-5.8 0-10.5 4.7-10.5 10.5v21.2h41.8z"/><path d="m307.8 365.4-9.2 5.3c-.4.2-.5.8-.3 1.1l15.8 27.4c.2.4.8.5 1.1.3l9.3-5.3c7.9-4.6 10.6-14.7 6-22.7s-15-10.7-22.7-6.1z"/><path d="m347.6 347.6c0 1.2-.6 2.3-1.6 2.9l-17.1 9.9c6 4 9.8 10.6 10.2 17.8l22.9-13.2c3.8-2.3 6.3-4.6 6.3-9.6v-59.8h-20.7z"/><path d="m366.5 257.5h-31.2v31.6h41.7v-21.1c0-5.8-4.8-10.5-10.5-10.5z"/><path d="m213.8 301.8c-2.4 0-4.4 2-4.4 4.4v26.3h93.5v-26.3c-.1-2.4-2-4.4-4.4-4.4z"/><path d="m228.4 264.6h55.1v14.3h-55.1z"/><path d="m183.4 332.4h19.5v-26.3c0-6 4.9-10.9 10.9-10.9h84.7c6 0 10.9 4.9 10.9 10.9v26.3h19.5c0-26 0-52 0-78-.2-13-10.3-23.5-23.5-23.5h-9.1-89.4c-12.9 0-23.4 10.5-23.4 23.4v78.1zm38.5-71c0-1.8 1.4-3.3 3.3-3.3h61.6c1.8 0 3.3 1.4 3.3 3.3v20.9c0 1.8-1.4 3.3-3.3 3.3h-61.6c-1.8 0-3.3-1.5-3.3-3.3z"/><path d="m219.1 207.8h73.7v16.6h-73.7z"/><path d="m181.4 177.4h6.4v-41.2h-6.4c-3.5 0-6.4 2.9-6.4 6.4v28.4c.1 3.6 2.9 6.4 6.4 6.4z"/><path d="m337 171.1v-28.4c0-3.5-2.9-6.4-6.4-6.4h-6.4v41.2h6.4c3.5-.1 6.4-2.9 6.4-6.4z"/><path d="m209.1 201.2h93.9c8.1 0 14.7-6.6 14.7-14.7v-59.4c0-8.1-6.6-14.7-14.7-14.7h-93.9c-8.1 0-14.7 6.6-14.7 14.7v59.4c0 8.1 6.5 14.7 14.7 14.7zm76.3-23.8c0 6.9-5.6 12.5-12.5 12.5h-33.6c-6.9 0-12.5-5.6-12.5-12.5v-6.8c0-1.8 1.4-3.3 3.3-3.3s3.3 1.4 3.3 3.3v6.8c0 3.3 2.7 5.9 5.9 5.9h33.6c3.3 0 5.9-2.7 5.9-5.9v-6.8c0-1.8 1.4-3.3 3.3-3.3 1.8 0 3.3 1.4 3.3 3.3zm-.8-53.6c9.7 0 17.6 7.9 17.6 17.5s-7.9 17.5-17.6 17.5-17.6-7.8-17.6-17.4 8-17.6 17.6-17.6zm-57.2 0c9.7 0 17.6 7.9 17.6 17.5 0 9.7-7.9 17.5-17.6 17.5s-17.6-7.9-17.6-17.5c.1-9.5 8-17.5 17.6-17.5z"/></g></g></svg>