<svg id="Layer_1" enable-background="new 0 0 491.5 491.5" height="512" viewBox="0 0 491.5 491.5" width="512" xmlns="http://www.w3.org/2000/svg"><g clip-rule="evenodd" fill-rule="evenodd"><ellipse cx="203.9" cy="77.9" rx="16.2" ry="16.1"/><ellipse cx="287.7" cy="77.9" rx="16.2" ry="16.1"/><path d="m183.6 413.7-13.5-7.8c-3.8-2.2-8-3.3-12.1-3.3-8.6 0-16.8 4.8-21.1 12.2-6.7 11.6-2.7 26.5 8.9 33.2l13.6 7.8c.6.3 1.3.1 1.6-.4l23.1-40.1c.2-.5 0-1.3-.5-1.6z"/><path d="m139 398.7-25-14.5c-1.5-.9-2.4-2.4-2.4-4.2v-76.1h-30.3v87.6c0 5.9 3.5 11.3 8.9 13.8 9.4 4.1 24.3 14 33.9 19.5.5-10.5 6.1-20.2 14.9-26.1z"/><path d="m129.7 248h-45.8c-8.5 0-15.4 6.9-15.4 15.4v31h61.2z"/><path d="m321.5 405.9-13.5 7.8c-.6.3-.8 1.1-.4 1.6l23.1 40.1c.3.6 1.1.8 1.6.4l13.6-7.8c11.5-6.7 15.5-21.6 8.8-33.2s-21.7-15.6-33.2-8.9z"/><path d="m380 380c0 1.7-.9 3.3-2.4 4.2l-25 14.5c8.8 5.9 14.4 15.6 15 26.1l33.5-19.3c5.5-3.4 9.2-6.7 9.2-14v-87.6h-30.3z"/><path d="m407.6 248h-45.8v46.3h61.2v-30.9c0-8.5-6.9-15.4-15.4-15.4z"/><path d="m183.8 312.7c-3.5 0-6.4 2.9-6.4 6.4v38.5h136.9v-38.5c-.1-3.5-3-6.4-6.5-6.4z"/><path d="m205.4 258.4h80.7v21h-80.7z"/><path d="m139.3 357.6h28.5v-38.5c0-8.8 7.2-16 16-16h124c8.8 0 16 7.2 16 16v38.5h28.5c0-38.1 0-76.2 0-114.3-.3-19.1-15.1-34.4-34.4-34.4h-13.4-130.9c-18.9 0-34.3 15.4-34.3 34.3zm56.5-104c0-2.7 2.1-4.8 4.8-4.8h90.3c2.7 0 4.8 2.1 4.8 4.8v30.6c0 2.6-2.1 4.8-4.8 4.8h-90.3c-2.6 0-4.8-2.2-4.8-4.8z"/><path d="m191.8 175h107.9v24.3h-107.9z"/><path d="m136.5 130.7h9.4v-60.4h-9.4c-5.2 0-9.4 4.2-9.4 9.4v41.6c0 5.2 4.2 9.4 9.4 9.4z"/><path d="m364.4 121.3v-41.6c0-5.2-4.2-9.4-9.4-9.4h-9.4v60.4h9.4c5.2 0 9.4-4.2 9.4-9.4z"/><path d="m177 165.5h137.5c11.8 0 21.5-9.6 21.5-21.5v-87c0-11.8-9.6-21.5-21.5-21.5h-137.5c-11.8 0-21.5 9.6-21.5 21.5v87c0 11.8 9.6 21.5 21.5 21.5zm111.7-35c0 10.1-8.2 18.3-18.3 18.3h-49.2c-10.1 0-18.3-8.2-18.3-18.3v-9.9c0-2.7 2.1-4.8 4.8-4.8s4.8 2.1 4.8 4.8v9.9c0 4.8 3.9 8.7 8.7 8.7h49.2c4.8 0 8.7-3.9 8.7-8.7v-9.9c0-2.7 2.1-4.8 4.8-4.8s4.8 2.1 4.8 4.8zm-1-78.3c14.2 0 25.8 11.5 25.8 25.7s-11.6 25.7-25.8 25.7-25.8-11.5-25.8-25.7 11.6-25.7 25.8-25.7zm-83.8-.1c14.2 0 25.8 11.5 25.8 25.7s-11.6 25.7-25.8 25.7-25.8-11.5-25.8-25.7c0-14.1 11.6-25.7 25.8-25.7z"/></g></svg>