<svg id="Layer_1" enable-background="new 0 0 3000 3000" height="512" viewBox="0 0 3000 3000" width="512" xmlns="http://www.w3.org/2000/svg"><g transform="translate(-2248 -2810)"><g id="Icons"><path clip-rule="evenodd" d="m2948.195 3485.293c-149.314-2.256-114.367 128.552-118.476 208.886l-208.008 103.243c-9.961 4.981-16.289 15.118-16.289 26.25v309.082c-96.162 32.265-90.89 161.502 0 190.43v211.992c-118.909 20.588-176.85 156.132-116.835 252.735 23.159 24.883 59.058-1.025 49.577-28.922-42.094-78.546 11.719-168.265 98.944-167.713 88.325 2.633 134.136 95.482 94.165 167.714-10.059 31.458 27.845 49.931 47.972 30.579 66.684-101.546-3.066-236.205-115.229-254.392v-211.992c96.159-32.21 90.893-161.45 0-190.43v-290.917l165.703-82.266c-3.867 99.67-1.915 181.739 118.476 179.824 5.483 480.624-31.216 520.319 87.79 593.14 39.683 19.379 60.655 17.859 112.297 17.699 31.59-.6 45.828 4.625 57.505-18.399 23.319-104.34-215.561 58.485-198.999-192.538h483.398c-3.799 189.866-31.133 147.255-210.219 152.345-43.03-4.085-49.076 48.2-14.347 57.819 12.166 1.857 8.523.314 25.968.775 34.238-.001 101.801-.001 101.919-.001-4.979 96.762 64.32 123.94 127.584 118.476 44.915.001 127.85.001 127.944.001v530.508h-89.473v-4.16c47.007-1.004 31.271-42.558 34.043-73.768-.001-62.109-.001-168.105-.001-177.215-1.467-27.503-22.815-31.38-43.716-29.915-27.832-.001-85.808-.001-85.951-.001-38.535-113.314-107.326-97.573-235.531-98.203-123.85-.006-193.074-13.218-230.406 98.203-86.877 2.034-128.708-11.525-129.667 30.674 2.719 233.358-15.183 251.109 39.842 250.224-8.446 19.329-5.26 58.927-5.801 79.804-80.296 22.967-103.401 82.519-98.202 164.357-5.756 83.067 22.85 139.708 98.202 160.956v46.407c0 54.608 44.297 98.964 98.966 98.964h459.257c54.61 0 98.966-44.356 98.966-98.964v-148.066h89.473c-.362 63.372 41.543 76.443 100.65 72.537 60.45 4.836 98.108-14.494 97.278-72.537h89.473c.04-.011-.029 145.728 0 148.041.007.528-.022-.157.061 3.367 11.363 137.53 175.431 86.379 266.861 95.627 292.046-6.67 400.064 44.222 390.267-145.375 92.228-26.356 101.926-98.945 98.202-167.664 6.729-82.488-28.383-139.021-98.202-157.648-.584-21.709 2.737-59.381-5.801-79.804 53.922 1.735 37.045-39.327 39.903-73.768-.001-63.042-.001-171.305-.001-177.557.391-14.576-12.312-29.778-29.335-29.573-2.204 0-100.3 0-100.391 0-38.458-113.311-107.356-97.571-235.532-98.203-123.875-.004-192.959-13.223-230.406 98.203-88.305 1.987-126.139-10.921-129.667 28.359 2.521 230.444-13.583 251.344 34.042 252.54v4.16h-89.473v-530.508c121.313-4.982 258.759 34.742 255.528-118.477h284.004c89.062 0 161.309-72.247 161.309-161.309v-449.531c147.07 3.156 114.956-130.933 118.477-179.824l165.703 82.266v290.917c-96.162 32.265-90.89 161.502 0 190.43v211.992c-118.909 20.588-176.85 156.132-116.835 252.735 23.16 24.883 59.058-1.025 49.578-28.922-42.095-78.546 11.718-168.265 98.944-167.713 88.326 2.633 134.136 95.482 94.165 167.714-10.059 31.458 27.845 49.931 47.972 30.579 66.684-101.546-3.066-236.205-115.229-254.392v-211.992c96.159-32.21 90.894-161.45 0-190.43v-309.082c0-11.132-6.329-21.269-16.289-26.25l-208.008-103.243c-.385-103.201 19.714-210.851-118.477-208.886-.049-.006.036-96.301 0-129.24-.967-70.024-67.824-32.829-58.589-7.499-.005 61.055-.005 931.915-.005 932.149h-1482.424v-1126.527c0-56.66 45.997-102.656 102.715-102.656h53.613c16.172 0 29.297-13.125 29.297-29.297s-13.125-29.297-29.297-29.297h-53.613c-89.062 0-161.309 72.247-161.309 161.25zm1586.837 2116.875c-58.392 18.716-121.97 4.326-290.643 8.62-138.096-1.702-226.442 5.805-249.358-8.62-6.049 120.39 23.592 76.939 273.445 84.789 265.644-4.273 269.13 26.593 266.556-84.789zm-1574.064-140.625c-9.457 135.813 55.322 71.909 113.279 95.802 22.192 15.067 12.963 47.591-9.885 52.662-29.449 1.067-76.832 4.826-103.394-7.839-2.986 73.346 4.009 88.241 74.639 84.784 64.55.001 127.497.001 191.913.001 275.507-3.993 275.6 25.959 273.449-84.785-18.556 17.273-309.045 5.28-349.206 8.618-34.874.146-42.623-52.242-2.654-58.511 3.784-.559 157 .157 250.464-.088 62.587-.971 78.058 7.915 101.396-26.308v-64.336c-58.442 18.708-121.939 4.332-290.642 8.62-138.001-1.699-226.603 5.801-249.359-8.62zm1574.064-142.676c-58.407 18.688-121.967 4.344-290.643 8.62-138.268-1.722-225.921 5.841-249.358-8.62v66.387c30.855 40.53 45.113 22.38 89.523 26.312 71.584-.003 196.25-.003 199.798-.003-.41.09.617-.179 4.602.349 37.692 7.367 29.166 57.949-4.528 58.245-27.041-2.409-279.262 7.163-289.395-8.613v64.336c30.211 40.865 50.913 22.252 77.643 26.312 67.028-.003 209.936-.003 311-.003 136.961-2.645 156.004 21.267 151.358-90.645-26.161 14.547-101.865 6.805-133.377 8.615-34.455-1.049-39.523-46.871-8.88-57.236 113.44-10.08 149.078 30.315 142.257-94.056zm58.593 17.754v201.855c41.833-22.611 40.451-50.827 39.608-102.656 1.157-48.919 1.06-77.498-39.608-99.199zm-1691.485.059c-49.579 25.433-38.035 71.272-39.375 105.892-2.088 44.858 1.439 76.698 39.609 95.905v-201.855zm805.49 170.215c.036-.059-.026-143.313 0-164.846-.511-10.483 4.953-8.027 30.375-8.239 32.827.998 51.283-3.763 50.365 6.38v164.032c.453 10.175-4.5 8.142-28.763 8.24-28.197-1.324-51.821 4.142-51.977-5.567zm-148.067-109.747v42.774h89.473v-42.774zm287.401 0v42.774h89.473v-42.774zm-345.995-154.57v-47.519h-522.247c-47.583 44.042 9.94 80.188 27.714 73.824 37.598.003 270.121.003 275.249.003 58.388 13.637 17.411 67.267-5.013 58.588-68.994-2.351-304.359 7.075-315.705-8.608-6.873 127.7 26.931 85.467 198.732 92.699 343.083-1.933 311.339 10.588 341.269-26.312v-66.387c-33.27 13.162-41.741 7.328-93.861 8.614-32.596-.603-52.253 5.457-60.538-24.769-2.777-49.924 56.572-29.955 106.24-33.828 24.994 1.208 32.72-6.634 48.16-26.305zm435.468 15.235h-376.874v80.742h89.473c5.632-58.242 45.717-66.275 100.65-63.339 55.233-3.912 92.735 9.679 97.279 63.339h89.473v-80.742zm632.695-285.059h-608.144v163.711c10.76 1.396 104.545-3.771 111.345 4 20.313 10.619 18.325 42.357-1.904 51.614-8.561 6.043-65.612 1.817-75.4 2.979v47.519c30.244 40.874 50.873 22.248 77.643 26.312 51.778-.003 148.712-.003 236.883-.003 115.171-1.463 194.848 4.292 204.848-5.147 27.503-14.816 26.085-53.58 2.873-68.68-.063-.018-324.924.013-357.506 0-37.211 1.995-45.364-52.236-4.899-58.506 31.58-.545 392.216.147 414.26-.087v-163.712zm-861.502-304.043v530.508h80.741v-530.508zm-305.509 245.274c-30.626-62.988-120.024-32.729-174.576-39.438-89.505 1.982-142.688-13.264-167.845 39.614 109.379-10.568 72.734 54.755 54.427 57.236-16.692 3.267-16.129.523-48.662 1.359-52.606-.001-138.456-.001-138.538-.001v163.711h608.085v-163.711c-.045-.007-313.733.006-329.508 0-42.86-2.38-36.297-59.629.618-58.593 16.62-.001 195.991-.001 196.058-.001zm1034.062 0c-30.559-62.996-120.013-32.724-174.532-39.438-88.798 1.986-142.958-13.288-167.831 39.614h342.48zm-392.285-363.751h-591.797c-5.098 80.069 59.092 55.941 86.9 59.885 50.026-.002 133.697-.002 216.644-.002 260.611-3.964 290.753 22.067 288.253-59.883zm-96.621-210.937h-398.555c-.967 55.926-1.863 106.221-24.609 152.344h447.773c-22.624-45.252-23.635-96.544-24.609-152.344zm541.934 0h-483.398c3.801 190.192 33.006 146.977 200.613 152.345 107.901-.994 182.144 2.591 203.3-2.639 90.426-26.509 79.266-100.977 79.485-149.706zm-788.086 105.469c43.202-1.673 109.967 6.528 116.607-10.977 35.077-68.039-78.798-43.373-116.249-47.618-37.87.617-40.526 56.074-.358 58.595zm1160.156-257.813c56.441 3.293 52.15 80.642 0 82.031-56.441-3.293-52.15-80.642 0-82.031zm-2226.562 0c56.441 3.293 52.151 80.642 0 82.031-56.441-3.293-52.151-80.642 0-82.031zm1213.594-229.161c-1.759 94.689-113.542 132.349-173.563 68.514-44.199-43.709-8.29-108.502-67.259-95.715-62.542 33.404 33.479 225.122 184.581 179.904 67.698-18.125 124.32-91.909 112.74-163.601-13.418-31.412-56.42-19.275-56.499 10.898zm699.492-413.905v336.914c61.289 3.861 61.179-29.891 59.882-71.966 0-39.316.001-97.045.001-96.93-2.822-124.867 18.665-172.519-59.883-168.018zm-1599.61 0c-61.349-3.835-61.154 29.888-59.882 71.952 0 39.299-.001 97.001 0 96.886 2.825 124.899-18.677 172.58 59.883 168.076v-336.914zm1010.449 18.632h-421.289c-43.035-190.153-309.397-161.79-315.059 29.297 7.667 196.372 275.168 214.714 315.059 29.297h421.289c43.047 190.214 309.395 161.89 315.059-29.297-7.665-196.269-275.18-214.656-315.059-29.297zm-577.5-70.956c135.641 6.859 130.594 196.05 0 200.566-135.493-6.865-130.577-196.014 0-200.566zm633.399 102.889c10.217 134.77 198.949 126.008 200.538-5.035-9.698-135.744-199.511-125.717-200.538 5.035zm-493.594-601.523c.03 0-252.324 0-252.364 0-36.545 1.884-38.315 49.624-7.018 57.742 13.176 1.968 2.614.382 13.606.853 76.039-.001 786.45-.001 1030.061-.001 74.228.802 85.626-2.729 111.123 4.409 122.04 41.772 46.338 184.033 83.831 212.513 36.08 22.137 51.592-16.389 47.615-34.658-.631-49.445 1.791-79.125-2.071-105.521-26.459-128.261-136.518-139.43-192.625-135.335-98.068-.001-377.938-.001-378.055-.001 3.739-54.526-19.212-94.284-65.581-112.5-35.849-11.599-76.109-3.856-163.381-5.979-82.968.847-131.41-2.546-150.891 3.267-54.642 15.299-78.241 62.419-74.25 115.211zm395.508 0c6.228-87.244-67.559-53.434-172.28-59.886-119.942 2.882-169.377-18.811-164.634 59.886z" fill-rule="evenodd"/></g></g></svg>